{"title":"Chris.Ryans.Elite.World.Cops.S01E01.Colombia.PDTV.XviD","uid":4722510,"size":368378195,"categoryP":"video","categoryS":"tv_shows","magnet":"?xt=urn:btih:c1cf8f7fae2a069ebbadcf6cef01f71d40182258&amp;dn=Chris.Ryans.Elite.World.Cops.S01E01.Colombia.PDTV.XviD&amp;tr=udp%3A%2F%2Ftracker.openbittorrent.com%3A80&amp;tr=udp%3A%2F%2Fopen.demonii.com%3A1337&amp;tr=udp%3A%2F%2Ftracker.coppersurfer.tk%3A6969&amp;tr=udp%3A%2F%2Fexodus.desync.com%3A6969","seeders":1,"leechers":2,"uploader":"rokfelerr","files":-1,"time":1234592520,"description":"Premiere of the gripping series that sees the author and former SAS soldier shadow the world's most remarkable police units. Chris joins the Junglas, an elite police unit that patrols the Colombian jungle in search of coca plantations and the associated cocaine-producing laboratories in order to disrupt the lucrative trade in the drug.\n\n\n:: ScreenShot :: &lt;a href=&quot;\nhttp://bayimg.com/EanCaaaBJ&quot; rel=&quot;nofollow&quot; target=&quot;_NEW&quot;&gt;\nhttp://bayimg.com/EanCaaaBJ&lt;/a&gt;\n\n\nVideo\nFormat                           : MPEG-4 Visual\nCodec ID/Hint                    : XviD\nDuration                         : 44mn 47s\nBit rate                         : 959 Kbps\nWidth                            : 640 pixels\nHeight                           : 352 pixels\nDisplay aspect ratio             : 16/9\nFrame rate                       : 25.000 fps\nResolution                       : 24 bits\nColorimetry                      : 4:2:0\nScan type                        : Progressive\nBits/(Pixel*Frame)               : 0.170\nStream size                      : 307 MiB (87%)\nWriting library                  : XviD 1.0.3 (UTC 2004-12-20)\n\nAudio\nFormat                           : MPEG Audio\nFormat version                   : Version 1\nFormat profile                   : Layer 3\nCodec ID                         : 55\nCodec ID/Hint                    : MP3\nDuration                         : 44mn 47s\nBit rate mode                    : Constant\nBit rate                         : 128 Kbps\nChannel(s)                       : 2 channels\nSampling rate                    : 48.0 KHz\nResolution                       : 16 bits\nStream size                      : 41.0 MiB (12%)\nAlignment                        : Aligned on interleaves\nInterleave, duration             : 40 ms (1.00 video frame)\nInterleave, preload duration     : 504 ms","torrent":{"xt":"urn:btih:c1cf8f7fae2a069ebbadcf6cef01f71d40182258","amp;dn":"Chris.Ryans.Elite.World.Cops.S01E01.Colombia.PDTV.XviD","amp;tr":["udp%3A%2F%2Ftracker.openbittorrent.com%3A80","udp%3A%2F%2Fopen.demonii.com%3A1337","udp%3A%2F%2Ftracker.coppersurfer.tk%3A6969","udp%3A%2F%2Fexodus.desync.com%3A6969"],"infoHash":"c1cf8f7fae2a069ebbadcf6cef01f71d40182258","infoHashBuffer":{"type":"Buffer","data":[193,207,143,127,174,42,6,158,187,173,207,108,239,1,247,29,64,24,34,88]},"announce":[],"urlList":[]}}